# xmcd
#
# Track frame offsets: 
#        150
#        30706
#        56198
#        79492
#
# Disc length: 1690 seconds
#
# Revision: 0
# Processed by: cddbd v1.5.2PL0 Copyright (c) Steve Scherf et al.
# Submitted via: ExactAudioCopyFreeDBPlugin 1.0
#
DISCID=32069804
DTITLE=Chedex Band - Save the Roof EP
DYEAR=2016
DGENRE=Blues
TTITLE0=Big Bus
TTITLE1=Rollin'
TTITLE2=Piece of Mind
TTITLE3=Better Keep Moving
EXTD=
EXTT0=
EXTT1=
EXTT2=
EXTT3=
PLAYORDER=
